<?xml version="1.0" standalone="no"?>
<!DOCTYPE svg PUBLIC "-//W3C//DTD SVG 20010904//EN"
 "http://www.w3.org/TR/2001/REC-SVG-20010904/DTD/svg10.dtd">
<svg version="1.0" xmlns="http://www.w3.org/2000/svg"
 width="300.000000pt" height="300.000000pt" viewBox="0 0 300.000000 300.000000"
 preserveAspectRatio="xMidYMid meet">
<metadata>
Created by potrace 1.10, written by Peter Selinger 2001-2011
</metadata>
<g transform="translate(0.000000,300.000000) scale(0.100000,-0.100000)"
fill="#000000" stroke="none">
<path d="M1091 1679 c0 -71 -3 -125 -9 -131 -6 -6 -29 -10 -51 -10 l-41 1 0
-41 0 -40 57 7 c109 13 123 38 123 210 l0 125 -40 0 -41 0 2 -121z"/>
<path d="M1560 1740 l0 -40 370 0 370 0 0 40 0 40 -370 0 -370 0 0 -40z"/>
<path d="M1800 1431 l0 -171 40 0 40 0 0 55 c0 51 2 55 24 55 19 0 31 -12 55
-55 31 -54 32 -55 76 -55 l45 0 -36 57 c-36 55 -36 56 -16 72 41 33 54 94 30
145 -20 45 -52 58 -159 63 l-99 6 0 -172z m186 74 c15 -23 15 -27 0 -50 -14
-21 -25 -25 -61 -25 l-45 0 0 50 0 50 45 0 c36 0 47 -4 61 -25z"/>
<path d="M720 1273 l0 -43 370 0 370 0 0 43 0 42 -370 0 -370 0 0 -42z"/>
</g>
</svg>
